<svg width="35" height="43" viewBox="0 0 35 43" fill="none" xmlns="http://www.w3.org/2000/svg">
<g clip-path="url(#clip0_33_778)">
<path d="M16.9775 33.4072C20.583 34.0005 22.7827 33.6856 26.1508 30.6233C27.1549 29.7105 28.346 29.6101 28.7522 29.5736C29.2542 29.5279 31.4449 29.2998 33.2248 31.7186C31.7643 32.5857 29.9981 33.5989 27.3374 34.1831C22.3948 35.2647 19.3051 33.9549 16.9775 33.4072Z" fill="url(#paint0_linear_33_778)"/>
<path d="M13.1437 15.517L13.9651 15.1976C13.6229 15.3893 13.1984 15.6311 12.7329 15.9232C12.8653 15.7863 13.0022 15.6494 13.1437 15.517Z" fill="url(#paint1_linear_33_778)"/>
<path d="M33.2246 31.6274C33.2109 31.6319 33.2018 31.6411 33.1881 31.6456C33.1835 31.6411 33.1835 31.6319 33.179 31.6274H33.2246Z" fill="url(#paint2_linear_33_778)"/>
<path d="M33.8178 34.8677C33.8087 34.9087 33.795 34.9498 33.7859 34.9955C33.5349 35.9219 33.0283 36.7617 32.3392 37.4325C28.898 40.787 24.1927 42.8544 19.0082 42.8544C17.2603 42.8544 15.5671 42.6171 13.9561 42.1789C8.26497 39.4361 6.28427 33.2749 6.06977 32.5401C4.01605 25.5575 8.00483 20.5053 8.53424 19.7614C9.80755 17.9678 11.4414 16.7401 12.733 15.9232C8.36538 20.4368 8.61182 25.594 10.6792 29.0716C12.1853 31.6 14.8186 32.5538 16.5666 33.1791C25.603 36.4057 30.7236 32.855 33.188 31.6456C33.868 33.0056 34.0095 34.0964 33.8178 34.8677Z" fill="url(#paint3_linear_33_778)"/>
<path d="M7.71287 21.2218C4.06181 26.7623 4.55014 37.1496 14.1296 42.2017C5.99231 40.0111 0 32.5812 0 23.7547C0 23.4581 0.00912766 23.166 0.0182553 22.8739C0.967532 18.7345 3.90664 15.412 8.03234 13.5089C14.6225 10.4694 21.0438 13.6048 21.7238 13.9653C21.2035 13.9836 13.7599 12.0394 7.71287 21.2218Z" fill="url(#paint4_linear_33_778)"/>
<path d="M31.8646 6.2707C33.5962 6.2707 34.9999 4.86696 34.9999 3.13535C34.9999 1.40374 33.5962 0 31.8646 0C30.133 0 28.7292 1.40374 28.7292 3.13535C28.7292 4.86696 30.133 6.2707 31.8646 6.2707Z" fill="url(#paint5_linear_33_778)"/>
<path d="M26.1964 38.4959C27.1391 38.4959 27.9032 37.7317 27.9032 36.789C27.9032 35.8463 27.1391 35.0822 26.1964 35.0822C25.2537 35.0822 24.4895 35.8463 24.4895 36.789C24.4895 37.7317 25.2537 38.4959 26.1964 38.4959Z" fill="url(#paint6_linear_33_778)"/>
<path opacity="0.96" d="M33.8178 34.8677C33.8087 34.9087 33.795 34.9498 33.7859 34.9955C33.5349 35.9219 33.0283 36.7617 32.3392 37.4325C28.898 40.787 24.1927 42.8544 19.0082 42.8544C17.2603 42.8544 15.5671 42.6171 13.9561 42.1789C8.26497 39.4361 6.28427 33.2749 6.06977 32.5401C4.01605 25.5575 8.00483 20.5053 8.53424 19.7614C9.80755 17.9678 11.4414 16.7401 12.733 15.9232C8.36538 20.4368 8.61182 25.594 10.6792 29.0716C12.1853 31.6 14.8186 32.5538 16.5666 33.1791C25.603 36.4057 30.7236 32.855 33.188 31.6456C33.868 33.0056 34.0095 34.0964 33.8178 34.8677Z" fill="url(#paint7_radial_33_778)"/>
<path d="M7.71287 21.2218C4.06181 26.7623 4.55014 37.1496 14.1296 42.2017C5.99231 40.0111 0 32.5812 0 23.7547C0 23.4581 0.00912766 23.166 0.0182553 22.8739C0.967532 18.7345 3.90664 15.412 8.03234 13.5089C14.6225 10.4694 21.0438 13.6048 21.7238 13.9653C21.2035 13.9836 13.7599 12.0394 7.71287 21.2218Z" fill="url(#paint8_radial_33_778)"/>
<path d="M32.9051 16.7493C31.7185 18.2918 29.642 18.2782 29.5142 18.2782C28.4188 18.2827 27.4376 18.1139 26.1506 16.9775C24.5989 15.6083 24.2338 15.2888 21.4408 13.8969C17.8536 12.1033 12.5048 11.5282 8.16001 13.5318C4.16666 15.3756 1.10433 18.4196 0.0227051 22.8785C0.52929 12.7787 8.87653 4.7464 19.0995 4.7464C24.6856 4.7464 29.3636 6.71341 32.8594 10.5425C32.864 10.5425 35.6434 13.1895 32.9051 16.7493Z" fill="url(#paint9_linear_33_778)"/>
<path d="M32.9051 16.7493C31.7185 18.2918 29.642 18.2782 29.5142 18.2782C28.4188 18.2827 27.4376 18.1139 26.1506 16.9775C24.5989 15.6083 24.2338 15.2888 21.4408 13.8969C17.8536 12.1033 12.5048 11.5282 8.16001 13.5318C4.16666 15.3756 1.10433 18.4196 0.0227051 22.8785C0.52929 12.7787 8.87653 4.7464 19.0995 4.7464C24.6856 4.7464 29.3636 6.71341 32.8594 10.5425C32.864 10.5425 35.6434 13.1895 32.9051 16.7493Z" fill="url(#paint10_radial_33_778)"/>
</g>
<defs>
<linearGradient id="paint0_linear_33_778" x1="16.5841" y1="32.0727" x2="32.8314" y2="32.0727" gradientUnits="userSpaceOnUse">
<stop stop-color="#460009"/>
<stop offset="1" stop-color="#500009"/>
</linearGradient>
<linearGradient id="paint1_linear_33_778" x1="12.7352" y1="15.5604" x2="13.9661" y2="15.5604" gradientUnits="userSpaceOnUse">
<stop stop-color="#1B9DE2"/>
<stop offset="0.2" stop-color="#1595DF"/>
<stop offset="0.7" stop-color="#0680D7"/>
<stop offset="1" stop-color="#0078D4"/>
</linearGradient>
<linearGradient id="paint2_linear_33_778" x1="33.1799" y1="31.6365" x2="33.2255" y2="31.6365" gradientUnits="userSpaceOnUse">
<stop stop-color="#1B9DE2"/>
<stop offset="0.2" stop-color="#1595DF"/>
<stop offset="0.7" stop-color="#0680D7"/>
<stop offset="1" stop-color="#0078D4"/>
</linearGradient>
<linearGradient id="paint3_linear_33_778" x1="1.34986" y1="18.594" x2="23.1458" y2="36.8137" gradientUnits="userSpaceOnUse">
<stop stop-color="#A00E28"/>
<stop offset="0.21" stop-color="#AA0E28"/>
<stop offset="0.7" stop-color="#B40E28"/>
<stop offset="1" stop-color="#BE0E28"/>
</linearGradient>
<linearGradient id="paint4_linear_33_778" x1="12.106" y1="12.9467" x2="7.32449" y2="34.1374" gradientUnits="userSpaceOnUse">
<stop stop-color="#010A1C"/>
<stop offset="0.2" stop-color="#0A0A1C"/>
<stop offset="0.7" stop-color="#140A1C"/>
<stop offset="1" stop-color="#1E0A1C"/>
</linearGradient>
<linearGradient id="paint5_linear_33_778" x1="28.7292" y1="3.13535" x2="34.9999" y2="3.13535" gradientUnits="userSpaceOnUse">
<stop stop-color="#013766"/>
<stop offset="0.2" stop-color="#0A3766"/>
<stop offset="0.7" stop-color="#143766"/>
<stop offset="1" stop-color="#1E3766"/>
</linearGradient>
<linearGradient id="paint6_linear_33_778" x1="24.4895" y1="36.789" x2="27.9032" y2="36.789" gradientUnits="userSpaceOnUse">
<stop stop-color="#460009"/>
<stop offset="1" stop-color="#500009"/>
</linearGradient>
<radialGradient id="paint7_radial_33_778" cx="0" cy="0" r="1" gradientUnits="userSpaceOnUse" gradientTransform="translate(20.3815 28.3035) scale(18.2772)">
<stop offset="0.68" stop-opacity="0"/>
<stop offset="0.93" stop-opacity="0.5"/>
<stop offset="1"/>
</radialGradient>
<radialGradient id="paint8_radial_33_778" cx="0" cy="0" r="1" gradientUnits="userSpaceOnUse" gradientTransform="translate(12.9658 28.7736) scale(16.8506 16.8506)">
<stop offset="0.65" stop-opacity="0"/>
<stop offset="0.93" stop-opacity="0.5"/>
<stop offset="1"/>
</radialGradient>
<linearGradient id="paint9_linear_33_778" x1="-1.87493" y1="12.8869" x2="32.1092" y2="15.5335" gradientUnits="userSpaceOnUse">
<stop stop-color="#013766"/>
<stop offset="0.2" stop-color="#0A3766"/>
<stop offset="0.7" stop-color="#143766"/>
<stop offset="1" stop-color="#1E3766"/>
</linearGradient>
<radialGradient id="paint10_radial_33_778" cx="0" cy="0" r="1" gradientUnits="userSpaceOnUse" gradientTransform="translate(25.1516 24.0619) scale(25.4201 25.4201)">
<stop offset="0.06" stop-color="#E31B24"/>
<stop offset="1" stop-color="#E31B24" stop-opacity="0"/>
</radialGradient>
<clipPath id="clip0_33_778">
<rect width="35" height="42.8543" fill="white"/>
</clipPath>
</defs>
</svg>
