<svg width="22" height="23" viewBox="0 0 22 23" fill="none" xmlns="http://www.w3.org/2000/svg">
<g filter="url(#filter0_d_308_4597)">
<path d="M5 4H17" stroke="#3E3838" stroke-linecap="round" stroke-linejoin="round"/>
<path d="M6.5 4H15.5V13C15.5 13.2652 15.3946 13.5196 15.2071 13.7071C15.0196 13.8946 14.7652 14 14.5 14H7.5C7.23478 14 6.98043 13.8946 6.79289 13.7071C6.60536 13.5196 6.5 13.2652 6.5 13V4Z" stroke="#3E3838" stroke-linecap="round" stroke-linejoin="round"/>
<path d="M8.5 4V3.5C8.5 2.83696 8.76339 2.20107 9.23223 1.73223C9.70107 1.26339 10.337 1 11 1C11.663 1 12.2989 1.26339 12.7678 1.73223C13.2366 2.20107 13.5 2.83696 13.5 3.5V4" stroke="#3E3838" stroke-linecap="round" stroke-linejoin="round"/>
<path d="M9.5 7.00098V11.0025" stroke="#3E3838" stroke-linecap="round" stroke-linejoin="round"/>
<path d="M12.5 7.00098V11.0025" stroke="#3E3838" stroke-linecap="round" stroke-linejoin="round"/>
</g>
<defs>
<filter id="filter0_d_308_4597" x="0.5" y="0.5" width="21" height="22" filterUnits="userSpaceOnUse" color-interpolation-filters="sRGB">
<feFlood flood-opacity="0" result="BackgroundImageFix"/>
<feColorMatrix in="SourceAlpha" type="matrix" values="0 0 0 0 0 0 0 0 0 0 0 0 0 0 0 0 0 0 127 0" result="hardAlpha"/>
<feOffset dy="4"/>
<feGaussianBlur stdDeviation="2"/>
<feComposite in2="hardAlpha" operator="out"/>
<feColorMatrix type="matrix" values="0 0 0 0 0 0 0 0 0 0 0 0 0 0 0 0 0 0 0.25 0"/>
<feBlend mode="normal" in2="BackgroundImageFix" result="effect1_dropShadow_308_4597"/>
<feBlend mode="normal" in="SourceGraphic" in2="effect1_dropShadow_308_4597" result="shape"/>
</filter>
</defs>
</svg>
